<svg width="80" height="80" viewBox="0 0 80 80" fill="none" xmlns="http://www.w3.org/2000/svg">
<path fill-rule="evenodd" clip-rule="evenodd" d="M25.2884 10.3585C23.9638 11.3692 22.3959 12.9296 20.0733 15.2522L15.2523 20.0732C12.9297 22.3958 11.3694 23.9637 10.3587 25.2883C9.39205 26.5552 9.16666 27.3017 9.16666 27.9474C9.16666 28.593 9.39205 29.3395 10.3587 30.6065C11.3694 31.9311 12.9297 33.499 15.2523 35.8216C16.2287 36.7979 16.2287 38.3808 15.2523 39.3571C14.276 40.3334 12.6931 40.3334 11.7168 39.3571L11.5938 39.2341C9.42592 37.0664 7.62221 35.2628 6.38359 33.6394C5.0776 31.9277 4.16666 30.1258 4.16666 27.9474C4.16666 25.7689 5.0776 23.9671 6.38359 22.2554C7.62221 20.632 9.42593 18.8284 11.5938 16.6606C11.6347 16.6198 11.6757 16.5788 11.7168 16.5376L16.5378 11.7166C16.5789 11.6755 16.6199 11.6345 16.6608 11.5937C18.8285 9.42579 20.6321 7.62205 22.2555 6.38343C23.9673 5.07744 25.7691 4.1665 27.9475 4.1665C30.126 4.1665 31.9278 5.07744 33.6395 6.38343C35.2629 7.62205 37.0666 9.42578 39.2343 11.5937L39.3573 11.7166C39.8261 12.1855 40.0895 12.8214 40.0895 13.4844C40.0895 14.1474 39.8261 14.7833 39.3573 15.2522L31.3223 23.2872C30.346 24.2635 28.7631 24.2635 27.7868 23.2872C26.8105 22.3108 26.8105 20.7279 27.7868 19.7516L34.0499 13.4885C32.6468 12.1051 31.5633 11.0884 30.6066 10.3585C29.3397 9.39189 28.5932 9.1665 27.9475 9.1665C27.3019 9.1665 26.5554 9.39189 25.2884 10.3585ZM66.5154 39.9103C67.1785 39.9103 67.8144 40.1737 68.2832 40.6426L68.4062 40.7656C70.5741 42.9333 72.3778 44.7369 73.6164 46.3603C74.9224 48.072 75.8333 49.8739 75.8333 52.0523C75.8333 54.2307 74.9224 56.0326 73.6164 57.7443C72.3778 59.3677 70.5741 61.1713 68.4062 63.339L63.3391 68.4061C61.1714 70.574 59.3679 72.3776 57.7445 73.6162C56.0328 74.9222 54.2309 75.8332 52.0525 75.8332C49.874 75.8332 48.0722 74.9222 46.3605 73.6162C44.7371 72.3776 42.9335 70.5739 40.7657 68.406L40.6427 68.283C39.6664 67.3067 39.6664 65.7238 40.6427 64.7475C41.619 63.7712 43.202 63.7712 44.1783 64.7475C46.5009 67.0701 48.0688 68.6305 49.3934 69.6411C50.6603 70.6078 51.4068 70.8332 52.0525 70.8332C52.6981 70.8332 53.4446 70.6078 54.7116 69.6411C56.0362 68.6305 57.6041 67.0701 59.9267 64.7475L64.7477 59.9265C67.0703 57.6039 68.6306 56.036 69.6413 54.7114C70.608 53.4444 70.8333 52.6979 70.8333 52.0523C70.8333 51.4067 70.608 50.6602 69.6413 49.3932C68.9114 48.4366 67.8948 47.353 66.5114 45.9499L60.2482 52.2131C59.2719 53.1894 57.689 53.1894 56.7127 52.2131C55.7364 51.2368 55.7364 49.6538 56.7127 48.6775L64.7477 40.6426C65.2165 40.1737 65.8524 39.9103 66.5154 39.9103Z" fill="#F8F8FF"/>
<path fill-rule="evenodd" clip-rule="evenodd" d="M49.1887 8.738C55.284 2.64267 65.1665 2.64267 71.2618 8.738C77.3572 14.8333 77.3572 24.7158 71.2618 30.8111L39.6442 62.4288C37.8378 64.2353 36.7744 65.2988 35.5914 66.2215C34.1971 67.309 32.6884 68.2414 31.0921 69.0022C29.7378 69.6476 28.3111 70.1231 25.8874 70.9309L14.7836 74.6322L12.11 75.5234C9.94149 76.2462 7.55067 75.6818 5.93433 74.0655C4.318 72.4492 3.7536 70.0583 4.47645 67.8898L9.06886 54.1125C9.87668 51.6888 10.3522 50.262 10.9977 48.9077C11.7584 47.3114 12.6908 45.8027 13.7784 44.4084C14.7011 43.2254 15.7646 42.162 17.5712 40.3556L49.1887 8.738ZM67.7263 12.2735C63.5836 8.13083 56.8669 8.13083 52.7242 12.2735L50.5178 14.48C50.6318 15.0632 50.8245 15.856 51.146 16.7828C51.8699 18.8693 53.2373 21.6094 55.8138 24.186C58.3904 26.7625 61.1306 28.13 63.2171 28.8538C64.1439 29.1754 64.9367 29.368 65.5198 29.482L67.7263 27.2756C71.869 23.1329 71.869 16.4162 67.7263 12.2735ZM61.4642 33.5377C58.8354 32.6105 55.4487 30.8919 52.2783 27.7215C49.1079 24.5511 47.3893 21.1645 46.4621 18.5357L21.2305 43.7673C19.265 45.7328 18.4319 46.572 17.7209 47.4835C16.8567 48.5915 16.1158 49.7903 15.5113 51.0588C15.014 52.1023 14.6359 53.2228 13.7569 55.8598L10.5997 65.3315L14.6683 69.4002L24.14 66.2429C26.7771 65.3639 27.8975 64.9859 28.941 64.4886C30.2095 63.884 31.4083 63.1431 32.5163 62.2789C33.4278 61.5679 34.267 60.7349 36.2326 58.7693L61.4642 33.5377Z" fill="#F8F8FF"/>
</svg>
